<?xml version="1.0" standalone="no"?>
<!DOCTYPE svg PUBLIC "-//W3C//DTD SVG 20010904//EN"
 "http://www.w3.org/TR/2001/REC-SVG-20010904/DTD/svg10.dtd">
<svg version="1.0" xmlns="http://www.w3.org/2000/svg"
 width="100.000000pt" height="300.000000pt" viewBox="0 0 500.000000 500.000000"
 preserveAspectRatio="xMidYMid meet">

<g transform="translate(0.000000,500.000000) scale(0.100000,-0.100000)"
fill="purple" stroke="none">
<path d="M1 4498 c0 -364 4 -497 11 -480 6 12 17 22 25 22 8 0 12 4 9 9 -5 8
27 58 46 72 5 3 6 13 3 22 -8 20 12 57 31 57 8 0 12 5 9 10 -3 6 1 10 9 10 9
0 16 3 16 8 0 4 11 19 24 33 13 14 27 36 31 48 4 12 9 20 12 17 12 -11 33 17
33 44 0 15 8 34 18 43 23 21 33 22 26 2 -4 -8 -2 -15 4 -15 5 0 13 11 16 26 9
34 66 112 66 90 0 -10 6 -16 12 -13 7 2 12 12 10 21 -6 31 26 68 55 64 15 -2
28 3 30 10 3 6 -3 12 -13 12 -22 0 56 57 90 66 15 3 26 11 26 16 0 6 -7 7 -16
4 -15 -6 -15 -4 -2 16 9 13 26 24 39 26 34 4 69 23 63 34 -3 5 3 12 15 15 12
3 21 9 21 14 0 4 14 16 30 26 16 9 30 21 30 27 0 19 53 58 73 52 11 -2 26 2
34 9 8 8 24 22 36 30 19 13 20 17 7 25 -9 6 -10 10 -3 10 6 0 15 -5 19 -11 4
-7 9 -7 13 -2 3 5 15 15 26 21 15 8 -107 11 -483 12 l-502 0 1 -502z"/>
<path d="M4000 4990 c0 -5 5 -10 10 -10 6 0 10 5 10 10 0 6 -4 10 -10 10 -5 0
-10 -4 -10 -10z"/>
<path d="M4042 4993 c9 -2 20 -13 23 -23 3 -10 19 -24 35 -31 16 -8 27 -16 24
-20 -2 -4 8 -10 24 -14 34 -8 62 -33 56 -50 -5 -12 19 -24 59 -29 9 -2 24 -11
31 -22 8 -10 19 -19 25 -19 5 0 17 -9 25 -20 8 -11 24 -20 37 -20 12 0 24 -6
27 -14 3 -9 0 -11 -8 -6 -8 5 -11 3 -8 -6 3 -8 12 -14 21 -14 15 0 49 -36 60
-65 4 -11 6 -10 7 5 1 18 2 18 10 -3 6 -13 23 -27 38 -33 24 -8 28 -15 25 -37
-1 -15 -1 -22 2 -15 4 7 13 4 28 -10 14 -14 19 -25 12 -30 -6 -5 2 -7 18 -4
25 4 28 2 23 -18 -5 -19 -1 -24 23 -28 19 -4 31 -14 34 -30 4 -13 25 -43 48
-67 25 -26 42 -53 42 -67 0 -19 6 -25 29 -30 23 -5 34 -16 51 -54 11 -27 24
-49 29 -49 18 0 64 -56 60 -74 -3 -13 0 -16 9 -11 9 6 11 3 6 -8 -4 -11 -1
-17 7 -17 9 0 12 -7 9 -20 -3 -11 0 -20 6 -20 8 0 11 136 11 490 l0 490 -487
-1 c-269 -1 -480 -3 -471 -6z m53 -23 c3 -5 1 -10 -4 -10 -6 0 -11 5 -11 10 0
6 2 10 4 10 3 0 8 -4 11 -10z m735 -680 c0 -5 -4 -10 -10 -10 -5 0 -10 5 -10
10 0 6 5 10 10 10 6 0 10 -4 10 -10z"/>
<path d="M2275 4749 c-4 -37 -8 -188 -9 -336 l-1 -270 -118 -62 c-64 -34 -122
-59 -128 -55 -6 3 -27 -7 -48 -24 -20 -16 -75 -49 -122 -72 -100 -51 -124 -36
211 -130 135 -38 289 -85 342 -104 l98 -36 98 36 c53 19 207 66 342 104 335
94 311 79 211 130 -47 23 -102 56 -122 72 -21 17 -42 27 -48 24 -6 -4 -64 21
-128 55 l-118 62 -1 270 c-1 148 -5 299 -9 336 l-7 66 -25 -51 -25 -50 -46 23
c-36 18 -62 23 -122 23 -60 0 -86 -5 -122 -23 l-46 -23 -25 50 -25 51 -7 -66z
m159 -264 c19 -14 19 -15 -6 -15 -33 0 -58 9 -58 21 0 14 43 10 64 -6z m196 6
c0 -12 -25 -21 -58 -21 -25 0 -25 1 -6 15 21 16 64 20 64 6z m-203 -123 c31
10 40 9 55 -5 17 -15 19 -15 36 0 15 14 24 15 55 5 29 -9 44 -8 77 5 22 8 40
12 39 9 0 -4 -10 -58 -23 -120 -22 -112 -22 -114 -65 -148 -38 -30 -51 -34
-101 -34 -49 0 -63 5 -96 31 -50 39 -49 38 -69 144 -9 50 -19 100 -22 112 -5
22 -5 22 36 6 34 -13 48 -14 78 -5z"/>
<path d="M2435 4300 l-30 -21 30 8 c36 8 93 8 132 -1 l28 -7 -30 21 c-16 11
-46 20 -65 20 -19 0 -48 -9 -65 -20z"/>
<path d="M2470 4251 c0 -12 37 -24 50 -16 20 12 10 25 -20 25 -16 0 -30 -4
-30 -9z"/>
<path d="M4518 4593 c7 -3 16 -2 19 1 4 3 -2 6 -13 5 -11 0 -14 -3 -6 -6z"/>
<path d="M2262 3593 c-30 -38 -51 -78 -66 -128 -5 -18 -1 -20 44 -20 41 0 54
-5 77 -27 15 -15 25 -29 22 -32 -2 -2 -81 -6 -175 -7 l-170 -4 -58 35 c-32 19
-92 70 -133 113 -71 75 -75 77 -68 45 4 -18 24 -76 43 -128 33 -86 36 -104 36
-195 0 -81 -4 -109 -22 -148 l-21 -48 -38 28 -37 28 21 -30 c11 -16 32 -53 46
-81 14 -28 40 -65 56 -82 l31 -30 -53 14 c-109 28 -267 124 -267 162 0 8 8 25
18 36 17 20 17 25 2 96 -16 70 -18 72 -23 40 -3 -19 -8 -79 -11 -133 -2 -55
-7 -101 -9 -104 -3 -2 -15 1 -27 7 -21 11 -22 11 -15 -47 5 -42 13 -63 29 -75
14 -12 16 -18 7 -18 -11 0 -12 -11 -8 -52 5 -39 -61 -1371 -105 -2141 -2 -26
-2 -47 -1 -47 2 0 21 37 44 82 81 161 169 272 250 314 41 21 113 14 140 -13
18 -18 19 -26 9 -140 l-11 -121 52 -69 c28 -37 54 -71 58 -75 4 -5 7 65 6 155
0 140 3 171 22 232 24 76 85 171 129 199 30 20 88 15 97 -9 5 -12 0 -12 -34 0
-45 16 -46 14 -20 -59 16 -46 21 -51 67 -66 41 -13 53 -23 71 -58 l21 -43 -48
-102 c-68 -142 -102 -240 -98 -284 3 -33 7 -39 43 -51 22 -8 47 -17 55 -20 31
-11 177 -3 219 12 29 9 50 12 61 6 60 -32 246 -28 312 6 23 12 28 21 28 51 0
45 -37 148 -100 280 l-48 102 21 43 c18 35 30 45 71 58 46 15 51 20 67 66 26
73 25 75 -20 59 -32 -11 -39 -11 -35 -1 3 7 21 18 40 24 34 10 36 9 83 -38
100 -100 136 -226 128 -440 l-6 -135 22 29 c12 16 40 50 62 77 l40 47 -8 127
c-11 147 -8 154 66 162 102 12 212 -98 326 -324 23 -46 42 -83 44 -83 1 0 1
21 -1 47 -44 770 -110 2102 -105 2141 4 41 3 52 -8 52 -9 0 -7 6 7 18 16 12
24 33 29 75 7 58 6 58 -15 47 -12 -6 -24 -9 -27 -7 -2 3 -7 49 -9 104 -3 54
-8 114 -11 133 -5 32 -7 30 -23 -40 -15 -71 -15 -76 2 -96 10 -11 18 -28 18
-36 0 -34 -128 -117 -234 -152 -54 -18 -79 -15 -70 9 3 8 11 12 16 9 6 -4 5
-10 -3 -16 -11 -8 -11 -9 1 -5 8 2 14 12 12 22 -2 9 1 14 6 11 6 -3 15 7 20
23 6 16 27 55 47 86 l36 57 -29 -21 c-17 -12 -35 -21 -40 -21 -24 0 -47 94
-47 190 1 86 5 106 43 210 23 63 41 120 42 126 0 6 -39 -28 -87 -75 -49 -48
-110 -98 -138 -112 -49 -25 -54 -25 -217 -21 -136 3 -168 7 -168 18 0 24 61
55 103 52 28 -3 37 0 37 12 -1 24 -35 92 -64 128 l-28 32 -19 -25 c-36 -44
-127 -54 -156 -16 -11 14 -12 14 -13 -1 0 -22 -40 -25 -40 -3 0 19 -16 20 -23
1 -18 -45 -145 -18 -157 33 -5 24 -6 23 -38 -16z m361 -210 c-7 -2 -19 -2 -25
0 -7 3 -2 5 12 5 14 0 19 -2 13 -5z m-109 -48 c19 28 17 28 192 -15 174 -43
334 -128 334 -177 0 -18 -35 -86 -76 -148 l-33 -51 -98 9 c-67 5 -99 5 -101
-2 -5 -14 -52 -14 -52 -1 0 6 -67 10 -180 10 -113 0 -180 -4 -180 -10 0 -13
-47 -13 -52 1 -2 7 -34 7 -101 2 l-98 -9 -33 51 c-41 62 -76 130 -76 148 0 48
154 131 332 176 159 41 160 41 185 15 l21 -23 16 24z m-344 -425 c0 -21 -15
-27 -25 -10 -7 12 2 30 16 30 5 0 9 -9 9 -20z m685 0 c0 -7 -6 -15 -12 -17 -8
-3 -13 4 -13 17 0 13 5 20 13 18 6 -3 12 -11 12 -18z m-225 -70 l0 -60 -130 0
-130 0 0 60 0 60 130 0 130 0 0 -60z m-320 -122 c0 -16 371 -19 382 -4 4 6 12
5 20 -2 13 -10 134 -11 166 -1 19 6 83 -192 84 -261 1 -61 -15 -127 -99 -398
l-56 -182 41 -88 c51 -106 82 -196 82 -234 0 -15 -1 -28 -2 -28 -2 0 -48 -9
-103 -19 -103 -20 -305 -39 -305 -28 0 32 24 106 32 101 6 -4 8 -2 5 3 -11 18
13 72 29 66 8 -3 12 -9 9 -13 -3 -4 4 -10 15 -13 11 -3 19 -2 18 2 -2 19 3 31
12 26 6 -4 10 -3 9 2 -3 18 1 36 8 30 5 -6 43 45 43 58 0 3 -11 -2 -25 -11
-24 -16 -24 -15 -60 41 l-36 56 -5 194 c-4 186 -3 198 21 272 14 43 25 81 25
85 0 4 -15 2 -32 -3 -18 -5 -58 -9 -88 -9 -30 0 -70 4 -88 9 -17 5 -32 7 -32
3 0 -4 11 -42 25 -84 23 -73 24 -88 21 -266 -4 -198 -7 -212 -58 -284 -16 -23
-23 -26 -39 -18 -22 12 -24 7 -9 -21 6 -10 17 -19 24 -19 16 0 30 -28 27 -50
-2 -12 0 -12 10 -3 10 10 10 15 -1 28 -10 12 -10 15 4 15 9 0 16 -7 16 -15 0
-8 4 -15 10 -15 5 0 9 -6 7 -12 -1 -7 3 -12 10 -11 6 1 14 -4 17 -13 4 -10 1
-13 -7 -9 -6 4 -4 0 5 -8 14 -11 37 -78 38 -111 0 -13 -189 2 -305 25 -55 10
-101 19 -102 19 -2 0 -3 13 -3 28 0 38 31 128 82 234 l41 88 -56 182 c-115
375 -118 397 -68 542 17 50 31 98 31 108 0 15 8 18 43 18 23 -1 61 -5 85 -9
34 -7 45 -5 49 5 6 17 33 18 33 2z m317 -1043 c0 -8 -4 -15 -9 -15 -5 0 -6 -6
-2 -12 5 -10 4 -10 -6 -1 -11 10 -11 15 0 28 15 19 17 19 17 0z m-92 -402 c17
-42 17 -183 1 -275 -15 -82 -15 -105 -4 -194 13 -97 13 -103 -7 -132 -11 -18
-22 -32 -25 -32 -3 0 -14 14 -25 32 -20 29 -20 35 -7 132 11 89 11 112 -4 194
-11 63 -15 121 -11 175 6 104 12 117 47 117 17 0 31 -7 35 -17z"/>
<path d="M2350 3209 c-100 -19 -155 -54 -182 -116 -11 -25 -18 -46 -16 -48 6
-6 689 -8 695 -2 3 3 -5 27 -17 52 -27 55 -86 93 -174 112 -69 14 -238 15
-306 2z"/>
<path d="M1541 3453 c-1 -12 -4 -30 -7 -40 -6 -17 -6 -17 11 -1 15 14 16 21 7
40 -11 23 -11 23 -11 1z"/>
<path d="M3445 3450 c-5 -15 -1 -28 9 -38 15 -15 16 -14 10 18 -9 44 -11 46
-19 20z"/>
<path d="M0 990 c0 -5 5 -10 10 -10 6 0 10 5 10 10 0 6 -4 10 -10 10 -5 0 -10
-4 -10 -10z"/>
<path d="M4992 980 c0 -14 2 -19 5 -12 2 6 2 18 0 25 -3 6 -5 1 -5 -13z"/>
<path d="M1 488 l-1 -488 490 0 c354 0 490 3 490 11 0 6 -9 9 -20 6 -13 -3
-20 0 -20 9 0 8 -6 11 -17 7 -11 -5 -14 -3 -8 6 5 9 2 12 -11 9 -20 -4 -74 42
-74 63 0 6 -9 9 -20 6 -11 -3 -18 -1 -15 3 3 5 -8 14 -25 22 -19 8 -34 25 -40
44 -8 23 -17 32 -34 32 -13 0 -41 17 -66 41 -24 23 -54 44 -67 47 -22 6 -25
10 -27 44 -1 10 -10 14 -27 12 -24 -2 -26 1 -22 25 3 16 1 24 -4 18 -5 -7 -16
-2 -30 12 -14 15 -17 24 -10 28 7 3 0 3 -14 0 -24 -4 -26 -2 -22 23 3 22 2 23
-5 8 -8 -19 -9 -19 -14 2 -4 12 -17 26 -30 31 -21 9 -21 10 -3 11 15 1 17 3 5
8 -37 17 -68 45 -64 56 3 7 -3 19 -12 27 -16 12 -17 12 -11 -3 4 -12 2 -15 -8
-11 -8 3 -12 9 -9 14 8 14 -14 47 -37 54 -15 5 -18 9 -9 15 9 5 6 12 -11 23
-12 9 -23 24 -25 34 -5 40 -17 64 -29 59 -14 -5 -45 24 -45 42 0 6 -6 17 -12
24 -7 7 -20 26 -28 42 -8 16 -23 31 -32 34 -9 2 -19 11 -21 21 -3 9 -5 -203
-6 -471z m39 422 c0 -5 -2 -10 -4 -10 -3 0 -8 5 -11 10 -3 6 -1 10 4 10 6 0
11 -4 11 -10z m680 -730 c0 -5 -4 -10 -10 -10 -5 0 -10 5 -10 10 0 6 5 10 10
10 6 0 10 -4 10 -10z"/>
<path d="M4951 936 c-7 -8 -8 -17 -3 -20 6 -3 13 1 16 10 9 23 2 28 -13 10z"/>
<path d="M4983 930 c-3 -11 -9 -20 -14 -20 -5 0 -9 -8 -9 -17 0 -15 -2 -16
-10 -3 -8 12 -10 10 -10 -10 0 -18 -3 -21 -9 -11 -7 11 -11 10 -20 -6 -5 -11
-8 -23 -5 -26 3 -3 0 -15 -8 -26 -8 -12 -17 -18 -20 -15 -10 10 -60 -64 -52
-77 5 -9 1 -10 -14 -7 -17 5 -22 2 -22 -12 0 -10 6 -21 13 -24 6 -3 0 -3 -15
0 -24 5 -28 3 -28 -15 0 -13 -6 -21 -18 -21 -12 0 -24 -16 -37 -49 -10 -27
-21 -49 -24 -49 -27 2 -40 -6 -51 -32 -12 -30 -47 -63 -59 -56 -3 2 -12 -2
-19 -10 -7 -8 -10 -14 -7 -14 16 0 -20 -42 -48 -56 -36 -19 -49 -34 -43 -50 2
-6 -18 -19 -45 -29 -33 -13 -49 -25 -49 -37 0 -12 -8 -18 -21 -18 -18 0 -20
-4 -15 -27 3 -16 3 -22 0 -15 -3 6 -14 12 -24 12 -13 0 -17 -5 -13 -20 4 -16
2 -19 -11 -14 -9 3 -16 1 -16 -5 0 -6 -6 -11 -13 -11 -8 0 -22 -9 -32 -20 -10
-11 -14 -20 -9 -20 5 0 -2 -7 -14 -16 -13 -9 -26 -13 -29 -10 -3 3 -15 0 -26
-5 -16 -9 -17 -13 -6 -20 10 -6 7 -9 -11 -9 -20 0 -22 -2 -10 -11 11 -8 7 -9
-17 -4 -17 3 -34 2 -37 -3 -3 -6 3 -8 14 -5 11 3 20 1 20 -5 0 -6 -17 -14 -37
-17 -21 -4 -42 -8 -48 -10 -5 -2 216 -4 493 -4 l502 -1 0 475 c0 261 -3 475
-6 475 -3 0 -8 -9 -11 -20z m-403 -494 c0 -3 -4 -8 -10 -11 -5 -3 -10 -1 -10
4 0 6 5 11 10 11 6 0 10 -2 10 -4z"/>
<path d="M1469 585 c-94 -15 -159 -37 -159 -55 0 -36 176 -66 524 -90 119 -8
151 -8 158 2 6 10 8 10 8 1 0 -9 17 -13 58 -12 l57 2 -50 7 c-27 5 -70 13 -95
20 -25 6 -56 9 -70 7 -14 -3 -34 -1 -45 4 -16 8 -15 8 8 4 33 -6 35 0 5 16
-17 9 -24 9 -33 -4 -9 -13 -13 -13 -30 0 -19 15 -19 15 4 8 16 -5 21 -4 17 4
-4 6 -26 16 -49 22 -37 10 -101 36 -174 71 -17 8 -26 8 -40 -3 -11 -9 -14 -10
-9 -1 4 6 6 12 4 11 -2 -1 -42 -7 -89 -14z m186 -35 c3 -5 1 -10 -4 -10 -6 0
-11 5 -11 10 0 6 2 10 4 10 3 0 8 -4 11 -10z m82 -37 c3 -8 -5 -9 -23 -4 -15
4 -29 12 -31 18 -3 8 5 9 23 4 15 -4 29 -12 31 -18z"/>
<path d="M3357 574 c-26 -14 -46 -28 -43 -33 3 -4 -7 -7 -22 -6 -15 2 -19 0
-9 -2 32 -8 6 -24 -29 -17 -22 4 -46 1 -68 -10 -19 -9 -49 -19 -67 -23 -28 -5
-30 -7 -14 -13 12 -5 0 -7 -31 -6 -36 1 -55 -4 -68 -16 -17 -17 -16 -18 14
-18 18 0 29 4 25 10 -3 6 -1 10 4 10 6 0 11 -4 11 -9 0 -4 21 -7 48 -5 429 31
592 58 580 96 -7 21 -108 50 -180 51 -36 1 -64 5 -61 10 10 16 -45 5 -90 -19z
m48 -4 c-3 -5 -11 -10 -16 -10 -6 0 -7 5 -4 10 3 6 11 10 16 10 6 0 7 -4 4
-10z"/>
<path d="M2555 449 c-4 -6 -5 -12 -2 -15 2 -3 7 2 10 11 7 17 1 20 -8 4z"/>
<path d="M2865 440 c3 -5 8 -10 11 -10 2 0 4 5 4 10 0 6 -5 10 -11 10 -5 0 -7
-4 -4 -10z"/>
<path d="M2796 429 c4 -7 44 0 44 7 0 2 -11 3 -24 2 -14 -1 -23 -5 -20 -9z"/>
<path d="M2928 433 c7 -3 16 -2 19 1 4 3 -2 6 -13 5 -11 0 -14 -3 -6 -6z"/>
</g>
</svg>
